<svg width="30.000000" height="30.000000" viewBox="0 0 30 30" fill="none" xmlns="http://www.w3.org/2000/svg" xmlns:xlink="http://www.w3.org/1999/xlink">
	<desc>
			Created with Pixso.
	</desc>
	<defs/>
	<path id="18+" d="M16.1 11.54Q15.52 11.31 14.78 11.31Q14.05 11.31 13.47 11.54Q12.99 11.74 12.68 12.1Q12.62 12.16 12.57 12.23Q12.52 12.3 12.48 12.36Q12.24 12.78 12.24 13.34Q12.24 13.87 12.44 14.27Q12.51 14.41 12.6 14.53Q12.77 14.77 13.01 14.97Q13.36 15.27 13.79 15.51Q13.3 15.72 12.88 16.04Q12.58 16.27 12.36 16.57Q12.28 16.68 12.21 16.79Q11.96 17.23 11.96 17.82Q11.96 18.53 12.28 19.03Q12.28 19.04 12.29 19.05Q12.34 19.13 12.4 19.2Q12.72 19.61 13.26 19.84Q13.89 20.11 14.8 20.11Q15.65 20.11 16.27 19.83Q16.76 19.61 17.08 19.25Q17.17 19.14 17.25 19.03Q17.29 18.96 17.32 18.9Q17.6 18.42 17.6 17.78Q17.6 17.19 17.34 16.77L17.34 16.77Q17.08 16.34 16.64 16.02Q16.2 15.71 15.65 15.45Q16.11 15.23 16.49 14.94Q16.83 14.68 17.04 14.34Q17.07 14.3 17.1 14.26Q17.32 13.87 17.32 13.34Q17.32 12.73 17.04 12.3Q17.02 12.26 17 12.23Q16.94 12.15 16.88 12.08Q16.57 11.73 16.1 11.54ZM7.76 20L8.71 20L8.71 11.43L7.9 11.43L5.58 13.22L6.09 13.88L7.07 13.09Q7.3 12.9 7.46 12.77Q7.62 12.64 7.8 12.45Q7.78 12.66 7.77 12.87Q7.76 13.08 7.76 13.33Q7.76 13.58 7.76 13.92L7.76 20ZM13.64 12.43Q14.08 12.1 14.77 12.1Q15.48 12.1 15.92 12.43Q16.07 12.54 16.17 12.69Q16.35 12.97 16.35 13.38Q16.35 13.8 16.17 14.11Q16.16 14.12 16.16 14.12Q15.96 14.43 15.61 14.66Q15.26 14.89 14.82 15.07Q14.36 14.89 13.99 14.67Q13.62 14.45 13.41 14.14Q13.4 14.12 13.39 14.11Q13.2 13.81 13.2 13.39Q13.2 12.98 13.38 12.7Q13.48 12.55 13.64 12.43ZM24.45 15.37L22.04 15.37L22.04 12.87L21.24 12.87L21.24 15.37L18.82 15.37L18.82 16.16L21.24 16.16L21.24 18.65L22.04 18.65L22.04 16.16L24.45 16.16L24.45 15.37ZM13.06 18.5Q12.91 18.2 12.91 17.83Q12.91 17.38 13.11 17.04Q13.11 17.03 13.11 17.02Q13.31 16.68 13.69 16.41Q14.07 16.13 14.61 15.91L14.82 15.99Q15.38 16.2 15.79 16.46Q16.2 16.71 16.42 17.04Q16.48 17.13 16.52 17.22Q16.64 17.48 16.64 17.79Q16.64 18.21 16.47 18.52Q16.35 18.74 16.16 18.91Q15.67 19.33 14.78 19.33Q13.84 19.33 13.38 18.91Q13.18 18.72 13.06 18.5Z" fill="#A1A6B4" fill-opacity="1.000000" fill-rule="evenodd"/>
	<rect id="Frame 119" rx="14.500000" width="29.000000" height="29.000000" transform="translate(0.500000 0.500000)" stroke="#A1A6B4" stroke-opacity="1.000000" stroke-width="1.000000"/>
</svg>
