<svg width="446.000000" height="291.000000" viewBox="0 0 446 291" fill="none" xmlns="http://www.w3.org/2000/svg" xmlns:xlink="http://www.w3.org/1999/xlink">
	<desc>
			Created with Pixso.
	</desc>
	<defs/>
	<rect id="Frame 165" width="445.000000" height="290.000000" fill="#FFFFFF" fill-opacity="0"/>
	<g opacity="0.500000">
		<path id="Spiral 3" d="M102.53 0C45.9 0 0 14.51 0 32.42C0 50.32 45.9 64.84 102.53 64.84C134.27 64.84 160 58.69 160 51.11C160 43.53 134.27 37.39 102.53 37.39C45.9 37.39 0 51.9 0 69.81C0 87.72 45.9 102.23 102.53 102.23C134.27 102.23 160 96.09 160 88.51C160 80.93 134.27 74.78 102.53 74.78C45.9 74.78 0 89.39 0 107.4C0 125.42 45.9 140.02 102.53 140.02C134.27 140.02 160 133.88 160 126.3C160 118.72 134.27 112.58 102.53 112.58C45.9 112.58 0 127.09 0 145C0 162.9 45.9 177.42 102.53 177.42C134.27 177.42 160 171.27 160 163.69C160 156.11 134.27 149.97 102.53 149.97C45.9 149.97 0 164.48 0 182.39C0 200.3 45.9 214.81 102.53 214.81C134.27 214.81 160 208.67 160 201.09C160 193.51 134.27 187.36 102.53 187.36C45.9 187.36 0 201.88 0 219.78C0 237.69 45.9 252.2 102.53 252.2C134.27 252.2 160 246.06 160 238.48C160 230.9 134.27 224.76 102.53 224.76C45.9 224.76 0 239.36 0 257.37C0 275.39 45.9 290 102.53 290" stroke="#A1A6B4" stroke-opacity="1.000000" stroke-width="1.000000" stroke-linecap="round"/>
	</g>
	<g opacity="0.500000">
		<path id="Dawn" d="M317.52 145.37L366.29 27.7L317.57 145.39L407.65 55.34L317.6 145.42L435.29 96.7L317.62 145.47L445 145.5L317.62 145.52L435.29 194.29L317.6 145.57L407.65 235.65L317.57 145.6L366.29 263.29L317.52 145.62L317.5 273L317.47 145.62L268.7 263.29L317.42 145.6L227.34 235.65L317.39 145.57L199.7 194.29L317.37 145.52L190 145.5L317.37 145.47L199.7 96.7L317.39 145.42L227.34 55.34L317.42 145.39L268.7 27.7L317.47 145.37L317.5 18L317.52 145.37Z" stroke="#A1A6B4" stroke-opacity="1.000000" stroke-width="1.000000"/>
	</g>
</svg>
