<svg width="768.000000" height="11.000000" viewBox="0 0 768 11" fill="none" xmlns="http://www.w3.org/2000/svg" xmlns:xlink="http://www.w3.org/1999/xlink">
	<desc>
			Created with Pixso.
	</desc>
	<defs/>
	<g opacity="0.600000">
		<path id="Vector" d="M0 0.5C8.33 0.5 8.33 10.5 16.68 10.5C25.02 10.5 25.02 0.5 33.35 0.5C41.7 0.5 41.7 10.5 50.02 10.5C58.36 10.5 58.36 0.5 66.68 0.5C75.02 0.5 75.02 10.5 83.34 10.5C91.68 10.5 91.68 0.5 100.02 0.5C108.36 0.5 108.36 10.5 116.7 10.5C125.04 10.5 125.04 0.5 133.38 0.5C141.72 0.5 141.72 10.5 150.06 10.5C158.4 10.5 158.4 0.5 166.74 0.5C175.08 0.5 175.08 10.5 183.42 10.5C191.76 10.5 191.76 0.5 200.1 0.5C208.44 0.5 208.44 10.5 216.76 10.5C225.1 10.5 225.1 0.5 233.42 0.5C241.76 0.5 241.76 10.5 250.08 10.5C258.42 10.5 258.42 0.5 266.76 0.5C275.1 0.5 275.1 10.5 283.44 10.5C291.78 10.5 291.78 0.5 300.12 0.5C308.46 0.5 308.46 10.5 316.8 10.5C325.14 10.5 325.14 0.5 333.46 0.5C341.8 0.5 341.8 10.5 350.12 10.5C358.46 10.5 358.46 0.5 366.78 0.5C375.12 0.5 375.12 10.5 383.46 10.5C391.8 10.5 391.8 0.5 400.14 0.5C408.48 0.5 408.48 10.5 416.82 10.5C425.16 10.5 425.16 0.5 433.5 0.5C441.84 0.5 441.84 10.5 450.18 10.5C458.52 10.5 458.52 0.5 466.86 0.5C475.2 0.5 475.2 10.5 483.54 10.5C491.88 10.5 491.88 0.5 500.2 0.5C508.54 0.5 508.54 10.5 516.86 10.5C525.2 10.5 525.2 0.5 533.52 0.5C541.86 0.5 541.86 10.5 550.2 10.5C558.54 10.5 558.54 0.5 566.88 0.5C575.22 0.5 575.22 10.5 583.56 10.5C591.9 10.5 591.9 0.5 600.24 0.5C608.58 0.5 608.58 10.5 616.92 10.5C625.26 10.5 625.26 0.5 633.6 0.5C641.94 0.5 641.94 10.5 650.28 10.5C658.62 10.5 658.62 0.5 666.94 0.5C675.28 0.5 675.28 10.5 683.6 10.5C691.94 10.5 691.94 0.5 700.26 0.5C708.6 0.5 708.6 10.5 716.94 10.5C725.28 10.5 725.28 0.5 733.62 0.5M734.64 0.5C742.98 0.5 742.98 10.5 751.32 10.5C759.66 10.5 759.66 0.5 768 0.5" stroke="#F5F6F7" stroke-opacity="1.000000" stroke-width="1.000000"/>
	</g>
</svg>
