<svg width="87.000000" height="10.000000" viewBox="0 0 87 10" fill="none" xmlns="http://www.w3.org/2000/svg" xmlns:xlink="http://www.w3.org/1999/xlink">
	<desc>
			Created with Pixso.
	</desc>
	<defs/>
	<rect id="logo" width="87.000000" height="10.000000" fill="#FFFFFF" fill-opacity="0"/>
	<path id="logo" d="M62.89 0.52C62.17 0.17 61.31 0 60.33 0C59.35 0 58.49 0.17 57.76 0.52C57.03 0.87 56.47 1.39 56.06 2.07Q55.45 3.09 55.45 4.54L55.45 9.83L57.88 9.83L57.88 7.51L62.74 7.51L62.74 9.83L65.2 9.83L65.2 4.54C65.2 3.57 65 2.75 64.6 2.07C64.19 1.39 63.62 0.87 62.89 0.52ZM85.08 9.73C85.85 9.56 86.49 9.31 87 9L86.24 7.32C85.8 7.59 85.27 7.81 84.64 7.96C84.01 8.11 83.39 8.19 82.76 8.19Q81.42 8.19 80.77 7.87C80.34 7.65 80.13 7.34 80.13 6.96C80.13 6.59 80.3 6.31 80.63 6.11C80.97 5.92 81.44 5.82 82.06 5.82L85.11 5.82L85.11 4.06L82.21 4.06C81.66 4.06 81.25 3.97 80.98 3.79C80.72 3.61 80.59 3.35 80.59 3.01Q80.59 2.83 80.65 2.68Q80.78 2.35 81.18 2.14C81.58 1.91 82.18 1.8 82.97 1.8C84.01 1.8 85 2 85.93 2.4L86.62 0.69Q85.89 0.37 84.9 0.19C84.24 0.06 83.57 0 82.88 0Q81.32 0 80.24 0.38C79.52 0.64 78.98 0.98 78.63 1.42C78.27 1.85 78.1 2.33 78.1 2.85C78.1 3.29 78.21 3.68 78.43 4.03C78.66 4.38 78.99 4.65 79.4 4.86C78.86 5.05 78.43 5.34 78.11 5.74C77.8 6.14 77.64 6.59 77.64 7.11C77.64 7.67 77.83 8.17 78.22 8.61C78.6 9.05 79.17 9.39 79.92 9.64C80.67 9.88 81.58 10 82.65 10C83.51 10 84.32 9.91 85.08 9.73ZM15.89 0.16L15.89 5.87Q15.89 7.52 15.09 8.53Q14.91 8.75 14.7 8.95Q13.5 10 11.29 10Q10.2 10 9.33 9.7C8.77 9.51 8.3 9.24 7.94 8.89C7.56 9.24 7.09 9.51 6.52 9.7Q5.67 10 4.6 10Q2.39 10 1.19 8.95Q0.98 8.75 0.8 8.53Q0 7.52 0 5.87L0 0.16L2.45 0.16L2.45 5.8Q2.45 6.97 2.99 7.54Q3.02 7.57 3.05 7.59L3.05 7.59L3.05 7.59L3.05 7.59Q3.57 8.09 4.57 8.09Q5.56 8.09 6.1 7.59Q6.71 7.02 6.71 5.8L6.71 0.16L9.17 0.16L9.17 5.8Q9.17 7.01 9.77 7.58L9.77 7.58Q10.31 8.09 11.32 8.09Q12.28 8.09 12.8 7.61Q13.42 7.05 13.42 5.8L13.42 0.16L15.89 0.16ZM53.11 0.16L53.11 5.87C53.11 7.21 52.71 8.24 51.91 8.95Q50.71 10 48.51 10C47.78 10 47.13 9.9 46.55 9.7C45.98 9.51 45.52 9.24 45.15 8.89C44.78 9.24 44.31 9.51 43.74 9.7C43.18 9.9 42.53 10 41.81 10Q39.61 10 38.41 8.95C37.61 8.24 37.21 7.21 37.21 5.87L37.21 0.16L39.67 0.16L39.67 5.8C39.67 6.58 39.85 7.16 40.2 7.54C40.56 7.9 41.08 8.09 41.78 8.09C43.21 8.09 43.92 7.32 43.92 5.8L43.92 0.16L46.38 0.16L46.38 5.8C46.38 7.32 47.1 8.09 48.54 8.09C49.94 8.09 50.64 7.32 50.64 5.8L50.64 0.16L53.11 0.16ZM77.55 0.16L72.95 9.83L70.52 9.83L65.94 0.16L68.59 0.16L71.83 7.07L75.11 0.16L77.55 0.16ZM62.74 4.33L62.74 5.71L57.88 5.71L57.88 4.33Q57.88 3.2 58.45 2.6Q58.48 2.56 58.52 2.52C58.96 2.11 59.55 1.9 60.31 1.9Q61.29 1.9 61.91 2.37L61.91 2.37Q62.01 2.44 62.09 2.52C62.52 2.93 62.74 3.53 62.74 4.33Z" fill="#292E39" fill-opacity="1.000000" fill-rule="evenodd"/>
	<path id="logo" d="M30.54 5.42L18 5.42L18 3.57L30.54 3.57L28.32 1.3L29.6 0L34 4.5L29.6 9L28.32 7.69L30.54 5.42Z" fill="#6D31EE" fill-opacity="1.000000" fill-rule="evenodd"/>
</svg>
