<svg width="45.000000" height="45.000000" viewBox="0 0 45 45" fill="none" xmlns="http://www.w3.org/2000/svg" xmlns:xlink="http://www.w3.org/1999/xlink">
	<desc>
			Created with Pixso.
	</desc>
	<defs/>
	<rect id="ok" width="45.000000" height="45.000000" fill="#FFFFFF" fill-opacity="0"/>
	<path id="ok" d="M45 22.5C45 34.92 34.92 45 22.5 45C10.07 45 0 34.92 0 22.5C0 10.07 10.07 0 22.5 0C34.92 0 45 10.07 45 22.5ZM22.63 6.86C18.15 6.86 14.51 10.49 14.51 14.98C14.51 19.47 18.15 23.11 22.63 23.11C27.12 23.11 30.76 19.47 30.76 14.98C30.76 10.49 27.12 6.86 22.63 6.86ZM22.63 18.34C20.78 18.34 19.27 16.84 19.27 14.98C19.27 13.13 20.78 11.62 22.63 11.62C24.49 11.62 25.99 13.13 25.99 14.98C25.99 16.84 24.49 18.34 22.63 18.34ZM25.5 29.57C28.75 28.91 30.7 27.37 30.81 27.29C31.76 26.52 31.91 25.13 31.15 24.18C30.38 23.23 28.99 23.08 28.04 23.84C28.02 23.85 25.94 25.45 22.52 25.45C19.1 25.45 16.98 23.85 16.96 23.84C16.01 23.08 14.62 23.23 13.85 24.18C13.09 25.13 13.24 26.52 14.19 27.29C14.3 27.37 16.33 28.95 19.67 29.6L15.01 34.47C14.17 35.35 14.19 36.75 15.07 37.59C15.5 38.01 16.05 38.21 16.6 38.21C17.18 38.21 17.76 37.98 18.19 37.54L22.52 32.92L27.29 37.57C28.15 38.43 29.55 38.43 30.41 37.56C31.28 36.7 31.28 35.3 30.41 34.44L25.5 29.57Z" fill="#CACACA" fill-opacity="1.000000" fill-rule="evenodd"/>
</svg>
