<svg width="255.000000" height="11.000000" viewBox="0 0 255 11" fill="none" xmlns="http://www.w3.org/2000/svg" xmlns:xlink="http://www.w3.org/1999/xlink">
	<desc>
			Created with Pixso.
	</desc>
	<defs/>
	<path id="Vector" d="M0.5 0.5C8.44 0.5 8.44 10.5 16.38 10.5C24.32 10.5 24.32 0.5 32.26 0.5C40.2 0.5 40.2 10.5 48.12 10.5C56.06 10.5 56.06 0.5 63.99 0.5C71.93 0.5 71.93 10.5 79.85 10.5C87.79 10.5 87.79 0.5 95.73 0.5C103.67 0.5 103.67 10.5 111.61 10.5C119.55 10.5 119.55 0.5 127.5 0.5C135.44 0.5 135.44 10.5 143.38 10.5C151.32 10.5 151.32 0.5 159.26 0.5C167.2 0.5 167.2 10.5 175.14 10.5C183.08 10.5 183.08 0.5 191.02 0.5C198.96 0.5 198.96 10.5 206.89 10.5C214.83 10.5 214.83 0.5 222.75 0.5C230.69 0.5 230.69 10.5 238.61 10.5C246.56 10.5 246.56 0.5 254.5 0.5" stroke="#A1A6B4" stroke-opacity="1.000000" stroke-width="1.000000" stroke-linecap="square"/>
</svg>
