<svg width="20.000000" height="20.000000" viewBox="0 0 20 20" fill="none" xmlns="http://www.w3.org/2000/svg" xmlns:xlink="http://www.w3.org/1999/xlink">
	<desc>
			Created with Pixso.
	</desc>
	<defs/>
	<path id="Subtract" d="M0 6C0 2.68 2.68 0 6 0L14 0C17.31 0 20 2.68 20 6L20 14C20 17.31 17.31 20 14 20L6 20C2.68 20 0 17.31 0 14L0 6ZM15.34 11.44C15.71 11.77 16.08 12.1 16.41 12.47C16.54 12.62 16.66 12.77 16.77 12.93C16.83 13.01 16.88 13.1 16.93 13.19C17.04 13.38 17.04 13.58 16.97 13.73C16.9 13.88 16.77 13.98 16.6 13.99L14.42 13.99C13.85 14.03 13.4 13.82 13.02 13.45C12.72 13.16 12.44 12.85 12.15 12.55C12.03 12.43 11.91 12.31 11.76 12.22C11.59 12.12 11.44 12.09 11.3 12.14C11.2 12.18 11.11 12.26 11.03 12.39C10.86 12.69 10.82 13.02 10.8 13.35C10.78 13.84 10.62 13.96 10.1 13.99C9 14.04 7.95 13.88 6.98 13.35C6.12 12.89 5.45 12.24 4.87 11.5C3.75 10.06 2.88 8.47 2.1 6.84C1.93 6.48 2.06 6.28 2.49 6.27C3.2 6.26 3.91 6.26 4.63 6.27C4.92 6.28 5.11 6.43 5.22 6.69C5.6 7.59 6.08 8.44 6.67 9.22L6.78 9.37C6.9 9.53 7.04 9.68 7.22 9.79C7.47 9.96 7.66 9.9 7.78 9.64C7.86 9.47 7.89 9.28 7.91 9.1C7.97 8.48 7.97 7.86 7.87 7.24C7.81 6.86 7.58 6.61 7.17 6.53C6.96 6.49 6.99 6.42 7.1 6.31C7.27 6.12 7.44 6 7.77 6L10.23 6C10.62 6.07 10.71 6.23 10.76 6.6L10.77 9.19C10.76 9.33 10.84 9.75 11.11 9.85C11.33 9.91 11.48 9.75 11.61 9.62C12.2 9.03 12.62 8.33 13 7.6C13.16 7.29 13.31 6.96 13.45 6.63C13.5 6.51 13.56 6.42 13.64 6.36C13.73 6.3 13.85 6.26 14.01 6.26L16.38 6.27C16.45 6.27 16.52 6.27 16.59 6.28C16.81 6.31 16.94 6.37 16.99 6.48C17.05 6.57 17.04 6.7 16.98 6.87C16.79 7.43 16.43 7.9 16.08 8.36L16.04 8.42C15.64 8.94 15.22 9.43 14.82 9.95C14.46 10.43 14.49 10.67 14.94 11.08C15.07 11.2 15.2 11.32 15.34 11.44Z" fill="#D2D5DD" fill-opacity="1.000000" fill-rule="evenodd"/>
</svg>
