<svg width="20.000000" height="20.000000" viewBox="0 0 20 20" fill="none" xmlns="http://www.w3.org/2000/svg" xmlns:xlink="http://www.w3.org/1999/xlink">
	<desc>
			Created with Pixso.
	</desc>
	<defs/>
	<path id="Subtract" d="M0 6C0 2.68 2.68 0 6 0L14 0C17.31 0 20 2.68 20 6L20 14C20 17.31 17.31 20 14 20L6 20C2.68 20 0 17.31 0 14L0 6ZM10.07 2C7.61 2 5.62 3.85 5.62 6.14C5.62 8.43 7.61 10.29 10.07 10.29C12.52 10.29 14.52 8.43 14.52 6.14C14.52 3.85 12.52 2 10.07 2ZM10.07 7.86C9.05 7.86 8.23 7.09 8.23 6.14C8.23 5.19 9.05 4.43 10.07 4.43C11.08 4.43 11.91 5.19 11.91 6.14C11.91 7.09 11.08 7.86 10.07 7.86ZM11.64 13.59C13.42 13.25 14.49 12.46 14.54 12.42C15.06 12.03 15.15 11.32 14.73 10.84C14.31 10.35 13.55 10.27 13.03 10.66C13.02 10.67 11.88 11.48 10.01 11.48C8.13 11.48 6.97 10.67 6.96 10.66C6.44 10.27 5.68 10.35 5.26 10.84C4.84 11.32 4.93 12.03 5.45 12.42C5.51 12.46 6.62 13.27 8.45 13.6L5.9 16.09C5.43 16.53 5.45 17.25 5.93 17.68C6.16 17.89 6.46 18 6.77 18C7.08 18 7.4 17.88 7.64 17.65L10.01 15.3L12.62 17.67C13.09 18.11 13.86 18.1 14.33 17.66C14.8 17.22 14.8 16.51 14.33 16.07L11.64 13.59Z" fill="#D2D5DD" fill-opacity="1.000000" fill-rule="evenodd"/>
</svg>
